name analog
datacolumns 19
datarows 18
range 0.0 0.0085
endheader
time	ground_force_vx	ground_force_vy	ground_force_vz	ground_force_px	ground_force_py	ground_force_pz	l_ground_force_vx	l_ground_force_vy	l_ground_force_vz	l_ground_force_px	l_ground_force_py	l_ground_force_pz	ground_torque_x	ground_torque_y	ground_torque_z	l_ground_torque_x	l_ground_torque_y	l_ground_torque_z
0.0	-0.0	-0.0	-0.0	-0.0	-0.0	-0.0	5.74181079864502	-98.5990219116211	-705.5720825195312	-35.25468444824219	16.21881866455078	75.4547119140625	-0.0	-0.0	-0.0	126951.390625	-43232.98828125	8859.3427734375
0.0005	-0.0	-0.0	-0.0	-0.0	-0.0	-0.0	6.7420196533203125	-98.81603240966795	-706.77734375	-35.328086853027344	15.817195892333984	75.29757690429688	-0.0	-0.0	-0.0	126916.1484375	-42981.48828125	9164.8447265625
0.001	-0.0	-0.0	-0.0	-0.0	-0.0	-0.0	7.120854377746582	-98.83197021484376	-705.3806762695312	-35.33609771728516	15.956830978393556	76.8585205078125	-0.0	-0.0	-0.0	127234.21875	-42823.56640625	9262.1328125
0.0015	-0.0	-0.0	-0.0	-0.0	-0.0	-0.0	7.4517059326171875	-98.7278060913086	-706.7141723632812	-35.002166748046875	16.284503936767578	74.11341857910156	-0.0	-0.0	-0.0	127103.328125	-42614.75	9327.0576171875
0.002	-0.0	-0.0	-0.0	-0.0	-0.0	-0.0	7.48339319229126	-98.28626251220705	-707.8923950195312	-35.42555236816406	16.24462890625	75.1348648071289	-0.0	-0.0	-0.0	127320.234375	-42416.4453125	9386.5068359375
0.0025	-0.0	-0.0	-0.0	-0.0	-0.0	-0.0	7.926901340484619	-98.21371459960938	-707.5435180664062	-35.50709533691406	16.210460662841797	75.39258575439453	-0.0	-0.0	-0.0	126877.4375	-42201.90625	9494.9140625
0.003	-0.0	-0.0	-0.0	-0.0	-0.0	-0.0	8.080554008483887	-98.55132293701172	-705.0610961914062	-35.262393951416016	16.26072883605957	76.12570190429688	-0.0	-0.0	-0.0	126690.4296875	-41983.36328125	9470.5751953125
0.0035	-0.0	-0.0	-0.0	-0.0	-0.0	-0.0	8.25793743133545	-98.47088623046876	-702.6163940429688	-35.75986099243164	16.128225326538086	76.73545837402344	-0.0	-0.0	-0.0	126090.109375	-41698.875	9532.6826171875
0.004	-0.0	-0.0	-0.0	-0.0	-0.0	-0.0	8.08048152923584	-98.06814575195312	-701.2920532226562	-35.19621658325195	16.178831100463867	74.95061492919922	-0.0	-0.0	-0.0	125292.140625	-41147.83203125	9557.1064453125
0.0045000000000000005	-0.0	-0.0	-0.0	-0.0	-0.0	-0.0	7.621330738067627	-97.98755645751952	-696.5267944335938	-35.24663543701172	16.26095962524414	75.7750473022461	-0.0	-0.0	-0.0	124457.2578125	-40413.07421875	9359.5830078125
0.005	-0.0	-0.0	-0.0	-0.0	-0.0	-0.0	7.251007080078125	-97.58000946044922	-692.5030517578125	-35.067718505859375	16.456632614135742	78.33909606933594	-0.0	-0.0	-0.0	123344.34375	-39842.67578125	9159.533203125
0.0055	-0.0	-0.0	-0.0	-0.0	-0.0	-0.0	6.19431209564209	-97.05784606933594	-689.3313598632812	-35.254364013671875	16.089021682739258	75.83598327636719	-0.0	-0.0	-0.0	122618.5078125	-38976.26953125	8943.45703125
0.006	-0.0	-0.0	-0.0	-0.0	-0.0	-0.0	5.249372959136963	-96.68919372558594	-683.7908325195312	-34.799346923828125	16.292272567749023	73.97268676757812	-0.0	-0.0	-0.0	122071.7890625	-38771.9296875	8826.8017578125
0.006500000000000001	-0.0	-0.0	-0.0	-0.0	-0.0	-0.0	4.952442646026611	-96.80056762695312	-680.996826171875	-35.47658157348633	16.045516967773438	76.41710662841797	-0.0	-0.0	-0.0	121234.96875	-37941.8125	8627.9921875
0.007	-0.0	-0.0	-0.0	-0.0	-0.0	-0.0	4.397324562072754	-96.99243927001952	-681.4536743164062	-35.417903900146484	16.46444320678711	75.7756576538086	-0.0	-0.0	-0.0	120861.171875	-37423.80078125	8370.859375
0.0075	-0.0	-0.0	-0.0	3.718880414962769	-1.6272951364517212	-23.047626495361328	3.5255205631256104	-97.4995346069336	-678.78076171875	-35.24663543701172	16.351415634155273	75.42472839355469	-0.0	-0.0	-0.0	120600.5078125	-36832.8203125	8270.904296875
0.008	-0.0	-0.0	-0.0	7.605748176574707	-2.510874032974243	-34.11639404296875	2.6689226627349854	-97.79480743408205	-679.0699462890625	-35.24663543701172	16.366825103759766	75.16342163085938	-0.0	-0.0	-0.0	120353.03125	-36212.09375	8001.595703125
0.0085	-0.0	-0.0	-0.0	9.351943016052246	-4.28583288192749	-48.45260620117188	2.040348052978516	-98.4054183959961	-676.6558837890625	-35.34366226196289	16.261674880981445	75.16312408447266	-0.0	-0.0	-0.0	119790.984375	-35921.890625	7748.4345703125
